<svg xmlns="http://www.w3.org/2000/svg" viewBox="0 0 200 200">
  <g stroke="#1f2937" stroke-width="2.5" fill="none">
    <line x1="50" y1="20" x2="50" y2="55"/>
    <line x1="90" y1="20" x2="90" y2="55"/>
    <line x1="130" y1="20" x2="130" y2="55"/>
    <rect x="35" y="55" width="110" height="60"/>
    <path d="M 50 55 L 50 70 L 60 75 L 50 80 L 60 85 L 50 90 L 60 95 L 50 100 L 50 115" stroke-linejoin="miter"/>
    <path d="M 90 55 L 90 70 L 100 75 L 90 80 L 100 85 L 90 90 L 100 95 L 90 100 L 90 115" stroke-linejoin="miter"/>
    <path d="M 130 55 L 130 70 L 140 75 L 130 80 L 140 85 L 130 90 L 140 95 L 130 100 L 130 115" stroke-linejoin="miter"/>
    <line x1="50" y1="115" x2="50" y2="150"/>
    <line x1="90" y1="115" x2="90" y2="150"/>
    <line x1="130" y1="115" x2="130" y2="150"/>
    <line x1="155" y1="130" x2="180" y2="130"/>
    <line x1="180" y1="130" x2="180" y2="160"/>
    <line x1="180" y1="160" x2="155" y2="160"/>
    <line x1="155" y1="160" x2="170" y2="155"/>
    <line x1="155" y1="160" x2="170" y2="165"/>
  </g>
  <text x="32" y="35" font-family="Arial, sans-serif" font-size="11" fill="#1f2937">L1</text>
  <text x="72" y="35" font-family="Arial, sans-serif" font-size="11" fill="#1f2937">L2</text>
  <text x="112" y="35" font-family="Arial, sans-serif" font-size="11" fill="#1f2937">L3</text>
  <text x="32" y="170" font-family="Arial, sans-serif" font-size="11" fill="#1f2937">T1</text>
  <text x="72" y="170" font-family="Arial, sans-serif" font-size="11" fill="#1f2937">T2</text>
  <text x="112" y="170" font-family="Arial, sans-serif" font-size="11" fill="#1f2937">T3</text>
  <text x="158" y="125" font-family="Arial, sans-serif" font-size="11" fill="#1f2937">95</text>
  <text x="158" y="180" font-family="Arial, sans-serif" font-size="11" fill="#1f2937">96</text>
</svg>
