<svg xmlns="http://www.w3.org/2000/svg" viewBox="0 0 200 200">
  <g stroke="#1f2937" stroke-width="2.5" fill="none">
    <line x1="40" y1="20" x2="40" y2="60"/>
    <line x1="40" y1="60" x2="58" y2="92"/>
    <circle cx="40" cy="60" r="2.5" fill="#1f2937"/>
    <circle cx="40" cy="100" r="2.5" fill="#1f2937"/>
    <line x1="40" y1="100" x2="40" y2="140"/>
    <line x1="80" y1="20" x2="80" y2="60"/>
    <line x1="80" y1="60" x2="98" y2="92"/>
    <circle cx="80" cy="60" r="2.5" fill="#1f2937"/>
    <circle cx="80" cy="100" r="2.5" fill="#1f2937"/>
    <line x1="80" y1="100" x2="80" y2="140"/>
    <line x1="120" y1="20" x2="120" y2="60"/>
    <line x1="120" y1="60" x2="138" y2="92"/>
    <circle cx="120" cy="60" r="2.5" fill="#1f2937"/>
    <circle cx="120" cy="100" r="2.5" fill="#1f2937"/>
    <line x1="120" y1="100" x2="120" y2="140"/>
    <line x1="150" y1="80" x2="170" y2="80"/>
    <rect x="155" y="80" width="30" height="30"/>
    <line x1="170" y1="110" x2="170" y2="140"/>
  </g>
  <text x="22" y="32" font-family="Arial, sans-serif" font-size="11" fill="#1f2937">L1</text>
  <text x="62" y="32" font-family="Arial, sans-serif" font-size="11" fill="#1f2937">L2</text>
  <text x="102" y="32" font-family="Arial, sans-serif" font-size="11" fill="#1f2937">L3</text>
  <text x="22" y="155" font-family="Arial, sans-serif" font-size="11" fill="#1f2937">T1</text>
  <text x="62" y="155" font-family="Arial, sans-serif" font-size="11" fill="#1f2937">T2</text>
  <text x="102" y="155" font-family="Arial, sans-serif" font-size="11" fill="#1f2937">T3</text>
  <text x="46" y="55" font-family="Arial, sans-serif" font-size="10" fill="#1f2937">1</text>
  <text x="46" y="115" font-family="Arial, sans-serif" font-size="10" fill="#1f2937">2</text>
  <text x="86" y="55" font-family="Arial, sans-serif" font-size="10" fill="#1f2937">3</text>
  <text x="86" y="115" font-family="Arial, sans-serif" font-size="10" fill="#1f2937">5</text>
  <text x="186" y="80" font-family="Arial, sans-serif" font-size="11" fill="#1f2937">A1</text>
  <text x="186" y="115" font-family="Arial, sans-serif" font-size="11" fill="#1f2937">A2</text>
</svg>
