<svg xmlns="http://www.w3.org/2000/svg" viewBox="0 0 200 200">
  <g stroke="#1f2937" stroke-width="2.5" fill="none">
    <line x1="70" y1="20" x2="70" y2="55"/>
    <circle cx="70" cy="55" r="3" fill="#1f2937"/>
    <circle cx="70" cy="145" r="3" fill="#1f2937"/>
    <line x1="70" y1="55" x2="92" y2="42"/>
    <rect x="55" y="70" width="30" height="20"/>
    <line x1="70" y1="55" x2="70" y2="70"/>
    <line x1="70" y1="90" x2="70" y2="105"/>
    <path d="M 70 105 L 80 110 L 60 120 L 70 125" stroke-linejoin="miter"/>
    <line x1="70" y1="125" x2="70" y2="145"/>
    <line x1="70" y1="145" x2="70" y2="180"/>
    <line x1="130" y1="20" x2="130" y2="55"/>
    <circle cx="130" cy="55" r="3" fill="#1f2937"/>
    <circle cx="130" cy="145" r="3" fill="#1f2937"/>
    <line x1="130" y1="55" x2="152" y2="42"/>
    <line x1="130" y1="55" x2="130" y2="145"/>
    <line x1="130" y1="145" x2="130" y2="180"/>
    <line x1="92" y1="42" x2="152" y2="42" stroke-dasharray="3,3"/>
  </g>
  <text x="62" y="15" font-family="Arial, sans-serif" font-size="12" fill="#1f2937">L</text>
  <text x="124" y="15" font-family="Arial, sans-serif" font-size="12" fill="#1f2937">N</text>
</svg>
