<svg xmlns="http://www.w3.org/2000/svg" viewBox="0 0 200 200">
  <g stroke="#1f2937" stroke-width="2.5" fill="none">
    <line x1="30" y1="20" x2="30" y2="55"/>
    <circle cx="30" cy="55" r="3" fill="#1f2937"/>
    <circle cx="30" cy="145" r="3" fill="#1f2937"/>
    <line x1="30" y1="55" x2="46" y2="46"/>
    <rect x="20" y="70" width="20" height="16"/>
    <line x1="30" y1="55" x2="30" y2="70"/>
    <line x1="30" y1="86" x2="30" y2="100"/>
    <path d="M 30 100 L 38 105 L 22 115 L 30 120" stroke-linejoin="miter"/>
    <line x1="30" y1="120" x2="30" y2="145"/>
    <line x1="30" y1="145" x2="30" y2="180"/>
    <line x1="80" y1="20" x2="80" y2="55"/>
    <circle cx="80" cy="55" r="3" fill="#1f2937"/>
    <circle cx="80" cy="145" r="3" fill="#1f2937"/>
    <line x1="80" y1="55" x2="96" y2="46"/>
    <rect x="70" y="70" width="20" height="16"/>
    <line x1="80" y1="55" x2="80" y2="70"/>
    <line x1="80" y1="86" x2="80" y2="100"/>
    <path d="M 80 100 L 88 105 L 72 115 L 80 120" stroke-linejoin="miter"/>
    <line x1="80" y1="120" x2="80" y2="145"/>
    <line x1="80" y1="145" x2="80" y2="180"/>
    <line x1="130" y1="20" x2="130" y2="55"/>
    <circle cx="130" cy="55" r="3" fill="#1f2937"/>
    <circle cx="130" cy="145" r="3" fill="#1f2937"/>
    <line x1="130" y1="55" x2="146" y2="46"/>
    <rect x="120" y="70" width="20" height="16"/>
    <line x1="130" y1="55" x2="130" y2="70"/>
    <line x1="130" y1="86" x2="130" y2="100"/>
    <path d="M 130 100 L 138 105 L 122 115 L 130 120" stroke-linejoin="miter"/>
    <line x1="130" y1="120" x2="130" y2="145"/>
    <line x1="130" y1="145" x2="130" y2="180"/>
    <line x1="175" y1="20" x2="175" y2="55"/>
    <circle cx="175" cy="55" r="3" fill="#1f2937"/>
    <circle cx="175" cy="145" r="3" fill="#1f2937"/>
    <line x1="175" y1="55" x2="190" y2="46"/>
    <line x1="175" y1="55" x2="175" y2="145"/>
    <line x1="175" y1="145" x2="175" y2="180"/>
    <line x1="46" y1="46" x2="190" y2="46" stroke-dasharray="3,3"/>
  </g>
  <text x="22" y="15" font-family="Arial, sans-serif" font-size="11" fill="#1f2937">L1</text>
  <text x="72" y="15" font-family="Arial, sans-serif" font-size="11" fill="#1f2937">L2</text>
  <text x="122" y="15" font-family="Arial, sans-serif" font-size="11" fill="#1f2937">L3</text>
  <text x="170" y="15" font-family="Arial, sans-serif" font-size="11" fill="#1f2937">N</text>
</svg>
