<svg xmlns="http://www.w3.org/2000/svg" viewBox="0 0 200 200">
  <g stroke="#1f2937" stroke-width="2.5" fill="none">
    <line x1="40" y1="20" x2="40" y2="55"/>
    <circle cx="40" cy="55" r="3" fill="#1f2937"/>
    <circle cx="40" cy="145" r="3" fill="#1f2937"/>
    <line x1="40" y1="55" x2="58" y2="44"/>
    <rect x="28" y="70" width="24" height="18"/>
    <line x1="40" y1="55" x2="40" y2="70"/>
    <line x1="40" y1="88" x2="40" y2="100"/>
    <path d="M 40 100 L 48 105 L 32 115 L 40 120" stroke-linejoin="miter"/>
    <line x1="40" y1="120" x2="40" y2="145"/>
    <line x1="40" y1="145" x2="40" y2="180"/>
    <line x1="100" y1="20" x2="100" y2="55"/>
    <circle cx="100" cy="55" r="3" fill="#1f2937"/>
    <circle cx="100" cy="145" r="3" fill="#1f2937"/>
    <line x1="100" y1="55" x2="118" y2="44"/>
    <rect x="88" y="70" width="24" height="18"/>
    <line x1="100" y1="55" x2="100" y2="70"/>
    <line x1="100" y1="88" x2="100" y2="100"/>
    <path d="M 100 100 L 108 105 L 92 115 L 100 120" stroke-linejoin="miter"/>
    <line x1="100" y1="120" x2="100" y2="145"/>
    <line x1="100" y1="145" x2="100" y2="180"/>
    <line x1="160" y1="20" x2="160" y2="55"/>
    <circle cx="160" cy="55" r="3" fill="#1f2937"/>
    <circle cx="160" cy="145" r="3" fill="#1f2937"/>
    <line x1="160" y1="55" x2="178" y2="44"/>
    <rect x="148" y="70" width="24" height="18"/>
    <line x1="160" y1="55" x2="160" y2="70"/>
    <line x1="160" y1="88" x2="160" y2="100"/>
    <path d="M 160 100 L 168 105 L 152 115 L 160 120" stroke-linejoin="miter"/>
    <line x1="160" y1="120" x2="160" y2="145"/>
    <line x1="160" y1="145" x2="160" y2="180"/>
    <line x1="58" y1="44" x2="178" y2="44" stroke-dasharray="3,3"/>
  </g>
  <text x="32" y="15" font-family="Arial, sans-serif" font-size="11" fill="#1f2937">L1</text>
  <text x="92" y="15" font-family="Arial, sans-serif" font-size="11" fill="#1f2937">L2</text>
  <text x="152" y="15" font-family="Arial, sans-serif" font-size="11" fill="#1f2937">L3</text>
</svg>
